<svg width="636pt" height="510pt" xmlns="http://www.w3.org/2000/svg" xmlns:xlink="http://www.w3.org/1999/xlink" xmlns:ev="http://www.w3.org/2001/xml-events" style="overflow: hidden; "><g id="viewport-20260316082522007" class="svg-pan-zoom_viewport" transform="matrix(1.003018488240473,0,0,1.003018488240473,0,36.134998742296574)" style="transform: matrix(1.00302, 0, 0, 1.00302, 0, 36.135);">
<g id="graph0" class="graph" transform="scale(1 1) rotate(0) translate(4 506.19)">
<title>G</title>
<!-- P -->
<g id="node1" class="node">
<title>P</title>
<ellipse fill="#e1f5fe" stroke="#333333" cx="376.98" cy="-461" rx="41.63" ry="41.63"></ellipse>
<text text-anchor="middle" x="376.98" y="-456.8" font-family="Helvetica,sans-Serif" font-size="14.00">Person</text>
</g>
<!-- O -->
<g id="node2" class="node">
<title>O</title>
<ellipse fill="#f2f2f2" stroke="#333333" cx="326.98" cy="-330" rx="35.72" ry="35.72"></ellipse>
<text text-anchor="middle" x="326.98" y="-325.8" font-family="Helvetica,sans-Serif" font-size="14.00">Order</text>
</g>
<!-- P&#45;&gt;O -->
<g id="edge1" class="edge">
<title>P-&gt;O</title>
<path fill="none" stroke="black" d="M362.12,-421.65C356.32,-406.68 349.64,-389.45 343.68,-374.07"></path>
<polygon fill="black" stroke="black" points="347.11,-373.23 340.23,-365.17 340.58,-375.76 347.11,-373.23"></polygon>
<text text-anchor="middle" x="381.21" y="-388.8" font-family="Times,serif" font-size="14.00">PLACED</text>
</g>
<!-- CypherCode -->
<g id="node5" class="node">
<title>CypherCode</title>
<polygon fill="#f9f9f9" stroke="#333333" points="556.16,-87.6 243.81,-87.6 243.81,-12.4 556.16,-12.4 556.16,-87.6"></polygon>
<text text-anchor="middle" x="399.98" y="-71" font-family="Helvetica,sans-Serif" font-size="14.00" fill="#005a9c">CYPHER ALIGNMENT:</text>
<text text-anchor="middle" x="399.98" y="-54.2" font-family="Helvetica,sans-Serif" font-size="14.00" fill="#005a9c">MATCH (p)-[:PLACED]-&gt;(o)-[:CONTAINS]-&gt;(pr)</text>
<text text-anchor="middle" x="399.98" y="-37.4" font-family="Helvetica,sans-Serif" font-size="14.00" fill="#005a9c">WHERE p.value &gt; 5000</text>
<text text-anchor="middle" x="399.98" y="-20.6" font-family="Helvetica,sans-Serif" font-size="14.00" fill="#005a9c">RETURN pr.name</text>
</g>
<!-- P&#45;&gt;CypherCode -->
<g id="edge4" class="edge">
<title>P-&gt;CypherCode</title>
<path fill="none" stroke="black" stroke-dasharray="1,5" d="M401.01,-426.7C405.53,-418.77 409.59,-410.08 411.98,-401.4 413.97,-394.2 412.07,-392.07 411.98,-384.6 410.65,-266.36 412.55,-236.67 405.98,-118.6 405.43,-108.6 404.58,-97.79 403.7,-87.81"></path>
</g>
<!-- Pr -->
<g id="node3" class="node">
<title>Pr</title>
<ellipse fill="#f2f2f2" stroke="#333333" cx="246.98" cy="-198" rx="44.32" ry="44.32"></ellipse>
<text text-anchor="middle" x="246.98" y="-193.8" font-family="Helvetica,sans-Serif" font-size="14.00">Product</text>
</g>
<!-- O&#45;&gt;Pr -->
<g id="edge2" class="edge">
<title>O-&gt;Pr</title>
<path fill="none" stroke="black" d="M304.82,-301.51C298.82,-293.59 292.53,-284.82 287.21,-276.4 281.62,-267.56 276.13,-257.86 271.08,-248.41"></path>
<polygon fill="black" stroke="black" points="274.23,-246.88 266.49,-239.64 268.02,-250.12 274.23,-246.88"></polygon>
<text text-anchor="middle" x="323.37" y="-263.8" font-family="Times,serif" font-size="14.00">CONTAINS</text>
</g>
<!-- O&#45;&gt;CypherCode -->
<g id="edge5" class="edge">
<title>O-&gt;CypherCode</title>
<path fill="none" stroke="black" stroke-dasharray="1,5" d="M346.58,-299.86C350.87,-292.46 355.01,-284.34 357.98,-276.4 381.86,-212.66 392.58,-133.5 397.07,-87.96"></path>
</g>
<!-- C -->
<g id="node4" class="node">
<title>C</title>
<ellipse fill="#f2f2f2" stroke="#333333" cx="72.98" cy="-50" rx="50.22" ry="50.22"></ellipse>
<text text-anchor="middle" x="72.98" y="-45.8" font-family="Helvetica,sans-Serif" font-size="14.00">Category</text>
</g>
<!-- Pr&#45;&gt;C -->
<g id="edge3" class="edge">
<title>Pr-&gt;C</title>
<path fill="none" stroke="black" d="M213.44,-168.85C186.83,-146.53 149.34,-115.07 119.78,-90.27"></path>
<polygon fill="black" stroke="black" points="122.35,-87.85 112.44,-84.1 117.85,-93.21 122.35,-87.85"></polygon>
<text text-anchor="middle" x="216.1" y="-122.8" font-family="Times,serif" font-size="14.00">BELONGS_TO</text>
</g>
<!-- Pr&#45;&gt;CypherCode -->
<g id="edge6" class="edge">
<title>Pr-&gt;CypherCode</title>
<path fill="none" stroke="black" stroke-dasharray="1,5" d="M278.69,-166.75C302.67,-143.86 335.72,-112.32 361.27,-87.95"></path>
</g>
</g>
</g></svg>