<svg width="866pt" height="694pt" xmlns="http://www.w3.org/2000/svg" xmlns:xlink="http://www.w3.org/1999/xlink" xmlns:ev="http://www.w3.org/2001/xml-events" style="overflow: hidden; "><g id="viewport-20260316082459588" class="svg-pan-zoom_viewport" transform="matrix(0.7368056357547061,0,0,0.7368056357547061,0,36.4758055202679)" style="transform: matrix(0.736806, 0, 0, 0.736806, 0, 36.4758);">
<g id="graph0" class="graph" transform="scale(1 1) rotate(0) translate(4 689.6)">
<title>G</title>
<g id="clust1" class="cluster">
<title>cluster_verifier</title>
<polygon fill="none" stroke="#005a9c" stroke-width="2" points="101.12,-33.44 101.12,-652.16 673.97,-652.16 673.97,-33.44 101.12,-33.44"></polygon>
<text text-anchor="middle" x="387.54" y="-635.56" font-family="Helvetica,sans-Serif" font-size="14.00" fill="#005a9c">PROPOSED: SQL-KG-VERIFIER MODULE</text>
</g>
<!-- DraftSQL -->
<g id="node1" class="node">
<title>DraftSQL</title>
<polygon fill="#f2f2f2" stroke="#333333" points="65.96,-439.8 -0.16,-439.8 -0.16,-403.8 71.96,-403.8 71.96,-433.8 65.96,-439.8"></polygon>
<polyline fill="none" stroke="#333333" points="65.96,-439.8 65.96,-433.8"></polyline>
<polyline fill="none" stroke="#333333" points="71.96,-433.8 65.96,-433.8"></polyline>
<text text-anchor="middle" x="35.9" y="-424.8" font-family="Helvetica,sans-Serif" font-size="10.00">DRAFT SQL</text>
<text text-anchor="middle" x="35.9" y="-412.8" font-family="Helvetica,sans-Serif" font-size="10.00">(Unverified)</text>
</g>
<!-- AST -->
<g id="node2" class="node">
<title>AST</title>
<ellipse fill="#f2f2f2" stroke="#333333" cx="175.9" cy="-421.8" rx="66.33" ry="22.63"></ellipse>
<text text-anchor="middle" x="175.9" y="-424.8" font-family="Helvetica,sans-Serif" font-size="10.00">AST Parser</text>
<text text-anchor="middle" x="175.9" y="-412.8" font-family="Helvetica,sans-Serif" font-size="10.00">(Logic Extraction)</text>
</g>
<!-- DraftSQL&#45;&gt;AST -->
<g id="edge1" class="edge">
<title>DraftSQL-&gt;AST</title>
<path fill="none" stroke="black" d="M72.44,-421.8C80.35,-421.8 89.05,-421.8 97.92,-421.8"></path>
<polygon fill="black" stroke="black" points="97.69,-425.3 107.69,-421.8 97.69,-418.3 97.69,-425.3"></polygon>
</g>
<!-- Validation -->
<g id="node3" class="node">
<title>Validation</title>
<polygon fill="#ffffff" stroke="#333333" points="527.9,-257.8 389.6,-225.8 527.9,-193.8 666.2,-225.8 527.9,-257.8"></polygon>
<text text-anchor="middle" x="527.9" y="-228.8" font-family="Helvetica,sans-Serif" font-size="10.00">SCHEMA ALIGNMENT</text>
<text text-anchor="middle" x="527.9" y="-216.8" font-family="Helvetica,sans-Serif" font-size="10.00">(Knowledge Graph Lookup)</text>
</g>
<!-- AST&#45;&gt;Validation -->
<g id="edge2" class="edge">
<title>AST-&gt;Validation</title>
<path fill="none" stroke="black" d="M211.74,-402.3C273.99,-367.43 404.55,-294.32 476.56,-254"></path>
<polygon fill="black" stroke="black" points="477.98,-257.21 484.99,-249.27 474.56,-251.1 477.98,-257.21"></polygon>
</g>
<!-- Validation&#45;&gt;DraftSQL -->
<g id="edge5" class="edge">
<title>Validation-&gt;DraftSQL</title>
<path fill="none" stroke="black" stroke-dasharray="5,2" d="M497.83,-200.46C423.57,-138.86 224.13,6.53 101.57,-94.2 55.64,-131.95 41.8,-319.46 38.1,-392.56"></path>
<polygon fill="black" stroke="black" points="34.63,-391.99 37.65,-402.15 41.62,-392.32 34.63,-391.99"></polygon>
<text text-anchor="middle" x="175.9" y="-114.8" font-family="Times,serif" font-size="14.00">Feedback Loop:</text>
<text text-anchor="middle" x="175.9" y="-98" font-family="Times,serif" font-size="14.00">Schema Correction</text>
</g>
<!-- Verified -->
<g id="node5" class="node">
<title>Verified</title>
<polygon fill="none" stroke="#333333" stroke-width="2" points="857.41,-243.8 726.38,-243.8 726.38,-207.8 857.41,-207.8 857.41,-243.8"></polygon>
<text text-anchor="middle" x="791.9" y="-228.8" font-family="Helvetica,sans-Serif" font-size="10.00">VERIFIED EXECUTABLE</text>
<text text-anchor="middle" x="791.9" y="-216.8" font-family="Helvetica,sans-Serif" font-size="10.00">(96.4% Success)</text>
</g>
<!-- Validation&#45;&gt;Verified -->
<g id="edge4" class="edge">
<title>Validation-&gt;Verified</title>
<path fill="none" stroke="black" d="M668.34,-225.8C684.25,-225.8 699.99,-225.8 714.62,-225.8"></path>
<polygon fill="black" stroke="black" points="714.59,-229.3 724.59,-225.8 714.59,-222.3 714.59,-229.3"></polygon>
<text text-anchor="middle" x="696.9" y="-230" font-family="Times,serif" font-size="14.00">Pass</text>
</g>
<!-- KG -->
<g id="node4" class="node">
<title>KG</title>
<path fill="#e1f5fe" stroke="#333333" d="M235.57,-176.8C235.57,-179.01 208.83,-180.8 175.9,-180.8 142.97,-180.8 116.22,-179.01 116.22,-176.8 116.22,-176.8 116.22,-140.8 116.22,-140.8 116.22,-138.6 142.97,-136.8 175.9,-136.8 208.83,-136.8 235.57,-138.6 235.57,-140.8 235.57,-140.8 235.57,-176.8 235.57,-176.8"></path>
<path fill="none" stroke="#333333" d="M235.57,-176.8C235.57,-174.6 208.83,-172.8 175.9,-172.8 142.97,-172.8 116.22,-174.6 116.22,-176.8"></path>
<text text-anchor="middle" x="175.9" y="-161.8" font-family="Helvetica,sans-Serif" font-size="10.00">KNOWLEDGE GRAPH</text>
<text text-anchor="middle" x="175.9" y="-149.8" font-family="Helvetica,sans-Serif" font-size="10.00">(The Factual Anchor)</text>
</g>
<!-- KG&#45;&gt;Validation -->
<g id="edge3" class="edge">
<title>KG-&gt;Validation</title>
<path fill="none" stroke="black" d="M246.95,-172.22C302.39,-182.83 380.09,-197.7 439.57,-209.09"></path>
<polygon fill="black" stroke="black" points="247.84,-168.82 237.36,-170.38 246.52,-175.7 247.84,-168.82"></polygon>
<polygon fill="black" stroke="black" points="438.87,-212.52 449.35,-210.96 440.19,-205.64 438.87,-212.52"></polygon>
<text text-anchor="middle" x="315.9" y="-198" font-family="Times,serif" font-size="14.00">Relational Mapping</text>
</g>
</g>
</g></svg>