<svg width="746pt" height="599pt" xmlns="http://www.w3.org/2000/svg" xmlns:xlink="http://www.w3.org/1999/xlink" xmlns:ev="http://www.w3.org/2001/xml-events" style="overflow: hidden; "><g id="viewport-20260316082424313" class="svg-pan-zoom_viewport" transform="matrix(0.8547695605573419,0,0,0.8547695605573419,0,54.91103965702035)" style="transform: matrix(0.85477, 0, 0, 0.85477, 0, 54.911);">
<g id="graph0" class="graph" transform="scale(1 1) rotate(0) translate(4 595.2)">
<title>G</title>
<g id="clust1" class="cluster">
<title>cluster_rdbms</title>
<polygon fill="none" stroke="#999999" stroke-dasharray="5,2" points="8,-12.65 8,-458.33 423,-458.33 423,-12.65 8,-12.65"></polygon>
<text text-anchor="middle" x="215.5" y="-441.73" font-family="Helvetica,sans-Serif" font-size="14.00" fill="#000000">LEGACY RELATIONAL ARCHITECTURE (The SQL Bottleneck)</text>
</g>
<!-- UserQuery -->
<g id="node1" class="node">
<title>UserQuery</title>
<polygon fill="#e6e6e6" stroke="#333333" points="519.67,-583.4 232.26,-583.4 158.33,-514.6 445.74,-514.6 519.67,-583.4"></polygon>
<text text-anchor="middle" x="339" y="-552.3" font-family="Helvetica,sans-Serif" font-size="11.00" fill="#000000">USER QUERY:</text>
<text text-anchor="middle" x="339" y="-539.1" font-family="Helvetica,sans-Serif" font-size="11.00" fill="#000000">'Analyze High-Value Churn Risk'</text>
</g>
<!-- T1 -->
<g id="node2" class="node">
<title>T1</title>
<polygon fill="#f2f2f2" stroke="#333333" points="400.18,-415 277.82,-415 277.82,-379 400.18,-379 400.18,-415"></polygon>
<text text-anchor="middle" x="339" y="-400.3" font-family="Helvetica,sans-Serif" font-size="11.00" fill="#000000">Table: USERS</text>
<text text-anchor="middle" x="339" y="-387.1" font-family="Helvetica,sans-Serif" font-size="11.00" fill="#000000">[PK: UID, Tier, Name]</text>
</g>
<!-- UserQuery&#45;&gt;T1 -->
<g id="edge1" class="edge">
<title>UserQuery-&gt;T1</title>
<path fill="none" stroke="#333333" d="M339,-514.34C339,-487.91 339,-451.53 339,-426.52"></path>
<polygon fill="#333333" stroke="#333333" points="342.5,-426.77 339,-416.77 335.5,-426.77 342.5,-426.77"></polygon>
<text text-anchor="middle" x="376.99" y="-472.3" font-family="Helvetica,sans-Serif" font-size="9.00" fill="#000000">LLM identifies 'VIP'</text>
</g>
<!-- T2 -->
<g id="node3" class="node">
<title>T2</title>
<polygon fill="#f2f2f2" stroke="#333333" points="407.2,-305 270.8,-305 270.8,-269 407.2,-269 407.2,-305"></polygon>
<text text-anchor="middle" x="339" y="-290.3" font-family="Helvetica,sans-Serif" font-size="11.00" fill="#000000">Table: TRANS</text>
<text text-anchor="middle" x="339" y="-277.1" font-family="Helvetica,sans-Serif" font-size="11.00" fill="#000000">[PK: TID, FK: UID, Total]</text>
</g>
<!-- T1&#45;&gt;T2 -->
<g id="edge2" class="edge">
<title>T1-&gt;T2</title>
<path fill="none" stroke="#333333" d="M339,-378.65C339,-361.96 339,-336.42 339,-316.7"></path>
<polygon fill="#333333" stroke="#333333" points="342.5,-316.82 339,-306.82 335.5,-316.82 342.5,-316.82"></polygon>
<text text-anchor="middle" x="360.5" y="-339.3" font-family="Helvetica,sans-Serif" font-size="9.00" fill="#000000">JOIN (1:N)</text>
</g>
<!-- T3 -->
<g id="node4" class="node">
<title>T3</title>
<polygon fill="#f2f2f2" stroke="#333333" points="413.32,-195 264.68,-195 264.68,-159 413.32,-159 413.32,-195"></polygon>
<text text-anchor="middle" x="339" y="-180.3" font-family="Helvetica,sans-Serif" font-size="11.00" fill="#000000">Table: LINE_ITEMS</text>
<text text-anchor="middle" x="339" y="-167.1" font-family="Helvetica,sans-Serif" font-size="11.00" fill="#000000">[PK: LID, FK: TID, FK: PID]</text>
</g>
<!-- T2&#45;&gt;T3 -->
<g id="edge3" class="edge">
<title>T2-&gt;T3</title>
<path fill="none" stroke="#333333" d="M339,-268.65C339,-251.96 339,-226.42 339,-206.7"></path>
<polygon fill="#333333" stroke="#333333" points="342.5,-206.82 339,-196.82 335.5,-206.82 342.5,-206.82"></polygon>
<text text-anchor="middle" x="361.75" y="-229.3" font-family="Helvetica,sans-Serif" font-size="9.00" fill="#000000">JOIN (N:M)</text>
</g>
<!-- T4 -->
<g id="node5" class="node">
<title>T4</title>
<polygon fill="#f2f2f2" stroke="#333333" points="405.02,-62 256.98,-62 256.98,-26 405.02,-26 405.02,-62"></polygon>
<text text-anchor="middle" x="331" y="-47.3" font-family="Helvetica,sans-Serif" font-size="11.00" fill="#000000">Table: PROD_CAT</text>
<text text-anchor="middle" x="331" y="-34.1" font-family="Helvetica,sans-Serif" font-size="11.00" fill="#000000">[PK: CID, Category_Name]</text>
</g>
<!-- T3&#45;&gt;T4 -->
<g id="edge4" class="edge">
<title>T3-&gt;T4</title>
<path fill="none" stroke="#333333" d="M337.94,-158.6C336.62,-136.97 334.34,-99.75 332.76,-73.83"></path>
<polygon fill="#333333" stroke="#333333" points="336.26,-73.75 332.16,-63.98 329.28,-74.17 336.26,-73.75"></polygon>
<text text-anchor="middle" x="373.76" y="-119.3" font-family="Helvetica,sans-Serif" font-size="9.00" fill="#000000">JOIN (Foreign Key)</text>
</g>
<!-- Failure -->
<g id="node6" class="node">
<title>Failure</title>
<polygon fill="#d9d9d9" stroke="#000000" points="738.4,-28.91 738.4,-59.09 649.13,-80.43 522.87,-80.43 433.6,-59.09 433.6,-28.91 522.87,-7.57 649.13,-7.57 738.4,-28.91"></polygon>
<text text-anchor="middle" x="586" y="-53.9" font-family="Helvetica,sans-Serif" font-size="11.00" fill="#000000">HALLUCINATION POINT:</text>
<text text-anchor="middle" x="586" y="-40.7" font-family="Helvetica,sans-Serif" font-size="11.00" fill="#000000">Nested Join Depth &gt; Context Window</text>
<text text-anchor="middle" x="586" y="-27.5" font-family="Helvetica,sans-Serif" font-size="11.00" fill="#000000">Result: 22.8% Accuracy Decline</text>
</g>
<!-- T3&#45;&gt;Failure -->
<g id="edge5" class="edge">
<title>T3-&gt;Failure</title>
<path fill="none" stroke="#333333" stroke-dasharray="1,5" d="M371.8,-158.6C406.83,-140.03 463.55,-109.94 509.82,-85.4"></path>
<polygon fill="#333333" stroke="#333333" points="511.3,-88.58 518.49,-80.8 508.02,-82.4 511.3,-88.58"></polygon>
</g>
</g>
</g></svg>